<?xml version="1.0" encoding="UTF-8" standalone="no"?>
<!-- Created with Inkscape (http://www.inkscape.org/) -->

<svg
   xmlns:dc="http://purl.org/dc/elements/1.1/"
   xmlns:cc="http://creativecommons.org/ns#"
   xmlns:rdf="http://www.w3.org/1999/02/22-rdf-syntax-ns#"
   xmlns:svg="http://www.w3.org/2000/svg"
   xmlns="http://www.w3.org/2000/svg"
   xmlns:sodipodi="http://sodipodi.sourceforge.net/DTD/sodipodi-0.dtd"
   xmlns:inkscape="http://www.inkscape.org/namespaces/inkscape"
   id="svg7306"
   height="48"
   width="48"
   version="1.1"
   sodipodi:docname="media-playlist-shuffle.svg"
   inkscape:version="0.92.2 (5c3e80d, 2017-08-06)">
  <metadata
     id="metadata29">
    <rdf:RDF>
      <cc:Work
         rdf:about="">
        <dc:format>image/svg+xml</dc:format>
        <dc:type
           rdf:resource="http://purl.org/dc/dcmitype/StillImage" />
      </cc:Work>
    </rdf:RDF>
  </metadata>
  <sodipodi:namedview
     pagecolor="#ffffff"
     bordercolor="#666666"
     borderopacity="1"
     objecttolerance="10"
     gridtolerance="10"
     guidetolerance="10"
     inkscape:pageopacity="0"
     inkscape:pageshadow="2"
     inkscape:window-width="982"
     inkscape:window-height="480"
     id="namedview27"
     showgrid="false"
     inkscape:zoom="4.9166667"
     inkscape:cx="24"
     inkscape:cy="24"
     inkscape:window-x="0"
     inkscape:window-y="27"
     inkscape:window-maximized="0"
     inkscape:current-layer="layer1" />
  <defs
     id="defs7308">
    <linearGradient
       id="linearGradient3752"
       y2="-13"
       gradientUnits="userSpaceOnUse"
       x2="22"
       gradientTransform="translate(-.000419 50)"
       y1="-41"
       x1="22">
      <stop
         id="stop3736"
         style="stop-color:#eeeeec"
         offset="0" />
      <stop
         id="stop3738"
         style="stop-color:#babdb6"
         offset=".74950" />
      <stop
         id="stop3740"
         style="stop-color:#a1a59b"
         offset="1" />
    </linearGradient>
    <radialGradient
       id="radialGradient3755"
       gradientUnits="userSpaceOnUse"
       cy="24.484"
       cx="21.578"
       gradientTransform="matrix(1 0 0 2.2315 -.000419 -30.153)"
       r="3.1719">
      <stop
         id="stop6891"
         offset="0" />
      <stop
         id="stop6893"
         style="stop-opacity:0"
         offset="1" />
    </radialGradient>
    <linearGradient
       id="linearGradient3759"
       y2="-13"
       gradientUnits="userSpaceOnUse"
       x2="22"
       gradientTransform="translate(-.000419 50)"
       y1="-40"
       x1="22">
      <stop
         id="stop3744"
         style="stop-color:#eeeeec"
         offset="0" />
      <stop
         id="stop3746"
         style="stop-color:#babdb6"
         offset=".74034" />
      <stop
         id="stop3748"
         style="stop-color:#a1a59b"
         offset="1" />
    </linearGradient>
    <linearGradient
       id="linearGradient3766"
       y2="33"
       gradientUnits="userSpaceOnUse"
       x2="22"
       y1="13"
       x1="22"
       gradientTransform="translate(-0.8441,1.6558)">
      <stop
         id="stop3214"
         style="stop-color:#fff"
         offset="0" />
      <stop
         id="stop3216"
         style="stop-color:#fff;stop-opacity:0"
         offset="1" />
    </linearGradient>
    <linearGradient
       id="linearGradient3768"
       y2="35"
       gradientUnits="userSpaceOnUse"
       x2="22"
       y1="12"
       x1="22">
      <stop
         id="stop6868"
         style="stop-color:#fff"
         offset="0" />
      <stop
         id="stop6870"
         style="stop-color:#fff;stop-opacity:0"
         offset="1" />
    </linearGradient>
  </defs>
  <g
     id="layer1">
    <path
       id="path6793"
       style="fill-rule:evenodd;stroke:#888a85;stroke-linecap:square;fill:url(#linearGradient3759)"
       d="m31.5 36.5v-3h-3c-2.1222-0.000001-4.247-0.90356-5.9688-2.4375s-3.0312-3.8276-3.0312-6.5625c0-3.336-2.0391-5-4.5-5h-4.5-2v-4h2 4.5c4.5391 0 8.5 3.7914 8.5 9 0 1.4651 0.69052 2.6777 1.7188 3.5938 1.0282 0.91606 2.4035 1.4062 3.2812 1.4062h3v-3l7 5-7 5z" />
    <path
       id="path6876"
       style="opacity:.6;fill:url(#radialGradient3755);fill-rule:evenodd"
       d="m20.968 17.406c-1.15 1.1828-2.0687 2.6675-2.5625 4.4062 0.40105 0.68112 0.625 1.5619 0.625 2.6875 0 2.8876 1.3788 5.2949 3.1875 6.9062 0.06175 0.05502 0.12476 0.10276 0.1875 0.15625 1.1268-1.2986 1.9555-2.9182 2.3438-4.7188-0.4785-0.67914-0.78125-1.4512-0.78125-2.3438 0-2.9001-1.1734-5.3943-3-7.0938z" />
    <path
       id="path6784"
       style="fill-rule:evenodd;stroke:#888a85;stroke-linecap:square;fill:url(#linearGradient3752)"
       d="m31.5 12.5v3h-3c-2.1222 0.000001-4.247 0.90356-5.9688 2.4375s-3.0312 3.8276-3.0312 6.5625c0 3.336-2.0391 5-4.5 5h-4.5-2v4h2 4.5c4.5391 0 8.5-3.7914 8.5-9 0-1.4651 0.69052-2.6777 1.7188-3.5938 1.0282-0.91606 2.4035-1.4062 3.2812-1.4062h3v3l7-5-7-5z" />
  </g>
</svg>
