<?xml version="1.0" encoding="UTF-8" standalone="no"?>
<!-- Created with Inkscape (http://www.inkscape.org/) -->

<svg
   xmlns:dc="http://purl.org/dc/elements/1.1/"
   xmlns:cc="http://creativecommons.org/ns#"
   xmlns:rdf="http://www.w3.org/1999/02/22-rdf-syntax-ns#"
   xmlns:svg="http://www.w3.org/2000/svg"
   xmlns="http://www.w3.org/2000/svg"
   xmlns:sodipodi="http://sodipodi.sourceforge.net/DTD/sodipodi-0.dtd"
   xmlns:inkscape="http://www.inkscape.org/namespaces/inkscape"
   id="svg7365"
   height="48"
   width="48"
   version="1.1"
   sodipodi:docname="media-playlist-repeat.svg"
   inkscape:version="0.92.2 (5c3e80d, 2017-08-06)">
  <metadata
     id="metadata16">
    <rdf:RDF>
      <cc:Work
         rdf:about="">
        <dc:format>image/svg+xml</dc:format>
        <dc:type
           rdf:resource="http://purl.org/dc/dcmitype/StillImage" />
      </cc:Work>
    </rdf:RDF>
  </metadata>
  <sodipodi:namedview
     pagecolor="#ffffff"
     bordercolor="#666666"
     borderopacity="1"
     objecttolerance="10"
     gridtolerance="10"
     guidetolerance="10"
     inkscape:pageopacity="0"
     inkscape:pageshadow="2"
     inkscape:window-width="982"
     inkscape:window-height="480"
     id="namedview14"
     showgrid="false"
     inkscape:zoom="4.9166667"
     inkscape:cx="24"
     inkscape:cy="24"
     inkscape:window-x="0"
     inkscape:window-y="27"
     inkscape:window-maximized="0"
     inkscape:current-layer="layer1" />
  <defs
     id="defs7367">
    <linearGradient
       id="linearGradient4444"
       y2="-13"
       gradientUnits="userSpaceOnUse"
       x2="-26"
       gradientTransform="translate(50 50)"
       y1="-38"
       x1="-26">
      <stop
         id="stop4436"
         style="stop-color:#eeeeec"
         offset="0" />
      <stop
         id="stop4438"
         style="stop-color:#babdb6"
         offset=".75692" />
      <stop
         id="stop4440"
         style="stop-color:#a1a59b"
         offset="1" />
    </linearGradient>
    <linearGradient
       id="linearGradient4448"
       y2="37"
       gradientUnits="userSpaceOnUse"
       x2="24"
       y1="13"
       x1="24"
       gradientTransform="translate(0.906,1.2811)">
      <stop
         id="stop3203"
         style="stop-color:#fff"
         offset="0" />
      <stop
         id="stop3205"
         style="stop-color:#fff;stop-opacity:0"
         offset="1" />
    </linearGradient>
  </defs>
  <g
     id="layer1">
    <path
       id="rect7213"
       style="stroke-linejoin:round;stroke-dashoffset:.7;stroke:#888a85;stroke-linecap:round;fill:url(#linearGradient4444)"
       d="m13.5 14.5c-2.7359 0-5 2.2641-5 5v9.0625c0 2.7359 2.2641 5 5 5h5v-4h-5c-0.58909 0-1-0.41091-1-1v-9.0625c0-0.58909 0.41091-1 1-1h21c0.58909 0 1 0.41091 1 1v9.0625c0 0.58909-0.41091 1-1 1h-5v-3.0625l-7 5 7 5v-2.9375h5c2.7359 0 5-2.2641 5-5v-9.0625c0-2.7359-2.2641-5-5-5h-21z" />
  </g>
</svg>
