<?xml version="1.0" encoding="UTF-8" standalone="no"?>
<svg
   xmlns:dc="http://purl.org/dc/elements/1.1/"
   xmlns:cc="http://creativecommons.org/ns#"
   xmlns:rdf="http://www.w3.org/1999/02/22-rdf-syntax-ns#"
   xmlns:svg="http://www.w3.org/2000/svg"
   xmlns="http://www.w3.org/2000/svg"
   xmlns:sodipodi="http://sodipodi.sourceforge.net/DTD/sodipodi-0.dtd"
   xmlns:inkscape="http://www.inkscape.org/namespaces/inkscape"
   width="103"
   height="131"
   version="1"
   id="svg16"
   sodipodi:docname="playlist.svg"
   inkscape:version="0.92.4 (33fec40, 2019-01-16)">
  <metadata
     id="metadata22">
    <rdf:RDF>
      <cc:Work
         rdf:about="">
        <dc:format>image/svg+xml</dc:format>
        <dc:type
           rdf:resource="http://purl.org/dc/dcmitype/StillImage" />
        <dc:title />
      </cc:Work>
    </rdf:RDF>
  </metadata>
  <defs
     id="defs20" />
  <sodipodi:namedview
     pagecolor="#ffffff"
     bordercolor="#666666"
     borderopacity="1"
     objecttolerance="10"
     gridtolerance="10"
     guidetolerance="10"
     inkscape:pageopacity="0"
     inkscape:pageshadow="2"
     inkscape:window-width="1850"
     inkscape:window-height="1031"
     id="namedview18"
     showgrid="false"
     inkscape:zoom="4.9166667"
     inkscape:cx="-13.908872"
     inkscape:cy="72.406779"
     inkscape:window-x="70"
     inkscape:window-y="27"
     inkscape:window-maximized="1"
     inkscape:current-layer="g836" />
  <g
     id="g836"
     transform="matrix(3.1707317,0,0,3.1707317,-1.0975608,-21.682927)">
    <path
       id="path2"
       d="m 2.4949153,8.0148631 c -1.108,0 -2.00000001,0.892 -2.00000001,1.9999999 v 36 c 0,1.108 0.89200001,2 2.00000001,2 H 30.494915 c 1.108,0 2,-0.892 2,-2 v -26 l -11,-1 -1,-10.9999999 z"
       style="opacity:0.2"
       inkscape:connector-curvature="0" />
    <path
       id="path4"
       d="m 2.4949153,7.0148631 c -1.108,0 -2.00000001,0.892 -2.00000001,2 V 45.014863 c 0,1.108 0.89200001,2 2.00000001,2 H 30.494915 c 1.108,0 2,-0.892 2,-2 v -26 l -11,-1 -1,-10.9999999 z"
       style="fill:#1e98d1"
       inkscape:connector-curvature="0" />
    <path
       id="path6"
       d="m 2.4949153,7.0148631 c -1.108,0 -2.00000001,0.892 -2.00000001,2 v 0.9999999 c 0,-1.1079999 0.89200001,-1.9999999 2.00000001,-1.9999999 H 20.494915 l 11,10.9999999 h 1 l -12,-11.9999999 z"
       style="opacity:0.2;fill:#ffffff"
       inkscape:connector-curvature="0" />
    <path
       id="path8"
       d="m 20.494915,8.0148631 v 9.9999999 c 0,1.1046 0.89543,2 2,2 h 10 z"
       style="opacity:0.2"
       inkscape:connector-curvature="0" />
    <path
       id="path10"
       d="m 20.494915,7.0148631 v 9.9999999 c 0,1.1046 0.89543,2 2,2 h 10 z"
       style="fill:#67bbe9"
       inkscape:connector-curvature="0" />
    <g
       id="g824"
       transform="matrix(0.7875163,0,0,0.7875163,-3.0647003,7.8792701)">
      <path
         inkscape:connector-curvature="0"
         style="opacity:0.2"
         d="M 18.599138,22.000426 A 1.5626729,1.5634188 0 0 0 17,23.563688 v 14.873384 a 1.5626729,1.5634188 0 0 0 2.343775,1.353605 l 12.875503,-7.436692 a 1.5626729,1.5634188 0 0 0 0,-2.707211 L 19.343775,22.210081 a 1.5626729,1.5634188 0 0 0 -0.744637,-0.209655 z"
         id="path12" />
      <path
         inkscape:connector-curvature="0"
         style="fill:#ffffff"
         d="M 18.599138,21.000426 A 1.5626729,1.5634188 0 0 0 17,22.563688 v 14.873384 a 1.5626729,1.5634188 0 0 0 2.343775,1.353605 l 12.875503,-7.436692 a 1.5626729,1.5634188 0 0 0 0,-2.707211 L 19.343775,21.210081 a 1.5626729,1.5634188 0 0 0 -0.744637,-0.209655 z"
         id="path14" />
    </g>
  </g>
</svg>
