<?xml version="1.0" encoding="UTF-8" standalone="no"?>
<svg
   xmlns:dc="http://purl.org/dc/elements/1.1/"
   xmlns:cc="http://creativecommons.org/ns#"
   xmlns:rdf="http://www.w3.org/1999/02/22-rdf-syntax-ns#"
   xmlns:svg="http://www.w3.org/2000/svg"
   xmlns="http://www.w3.org/2000/svg"
   xmlns:sodipodi="http://sodipodi.sourceforge.net/DTD/sodipodi-0.dtd"
   xmlns:inkscape="http://www.inkscape.org/namespaces/inkscape"
   height="80"
   width="400"
   version="1.1"
   id="svg18"
   sodipodi:docname="sound.svg"
   inkscape:version="0.92.2 (5c3e80d, 2017-08-06)">
  <metadata
     id="metadata24">
    <rdf:RDF>
      <cc:Work
         rdf:about="">
        <dc:format>image/svg+xml</dc:format>
        <dc:type
           rdf:resource="http://purl.org/dc/dcmitype/StillImage" />
      </cc:Work>
    </rdf:RDF>
  </metadata>
  <defs
     id="defs22" />
  <sodipodi:namedview
     pagecolor="#ffffff"
     bordercolor="#666666"
     borderopacity="1"
     objecttolerance="10"
     gridtolerance="10"
     guidetolerance="10"
     inkscape:pageopacity="0"
     inkscape:pageshadow="2"
     inkscape:window-width="1920"
     inkscape:window-height="1025"
     id="namedview20"
     showgrid="false"
     inkscape:zoom="2.4750567"
     inkscape:cx="88.874948"
     inkscape:cy="40.273019"
     inkscape:window-x="0"
     inkscape:window-y="27"
     inkscape:window-maximized="1"
     inkscape:current-layer="svg18" />
  <linearGradient
     id="a"
     gradientTransform="matrix(.75772388 0 0 1.7493489 620.94724 1264.4103)"
     gradientUnits="userSpaceOnUse"
     spreadMethod="reflect"
     x1="186.0408"
     x2="186.0408"
     y1="-374.8327"
     y2="-318.73032">
    <stop
       offset="0"
       stop-color="#ff909c"
       id="stop2" />
    <stop
       offset="1"
       stop-color="#d40055"
       id="stop4" />
  </linearGradient>
  <linearGradient
     id="b"
     gradientTransform="matrix(.75772388 0 0 1.7493489 620.94724 1264.4103)"
     gradientUnits="userSpaceOnUse"
     spreadMethod="reflect"
     x1="132.21986"
     x2="132.21986"
     y1="-340.74524"
     y2="-320.20349">
    <stop
       offset="0"
       stop-color="#71c837"
       id="stop7" />
    <stop
       offset="1"
       stop-color="#338000"
       id="stop9" />
  </linearGradient>
  <g
     transform="matrix(-1.319742 0 0 .57164126 1104.966 -332.90636)"
     id="g16">
    <path
       d="m539.35552 609.47155-.21875 13.0625c-.10853 7.18879-.37893 14.37124-.625 15.96875-.24606 1.59751-.52384 4.11912-.59375 5.59375-.0699 1.47463-.18667-.44056-.28125-4.25l-.1875-6.9375-.25 4.71875-.25 4.6875-.34375-4.25c-.18662-2.33482-.47421-6.06932-.65625-8.28125l-.34375-4-.21875 4.6875c-.14333 11.50043-2.58379 27.43794-.125 35 .17081.17081.43692 3.5757.59375 7.5625l.28125 7.25.15625-7.59375c.0804-4.17811.24887-6.89146.375-6.03125l.21875 1.5625.3125-1.5625c.28744-1.44736.30856-1.36818.4375.90625.13896 2.45125.15241 2.43636.4375-.90625.17614-2.06519.35931 1.96384.46875 10.5l.1875 13.84375.25-8.71875c.1406-4.84856.28973-6.86246.34375-4.5625.0562 2.39299.27255 4.125.53125 4.125.24577 0 .50598 1.05344.5625 2.34375.0565 1.29029.21102-4.48755.34375-12.84375l.25-15.1875.0937 19.5625.0937 19.53125h.4375l.0625-15.0625h.0313c.0376-9.02108.17178-14.09511.375-12.625.18686 1.35173.38889 4.5444.4375 7.125.0486 2.58059.25064 5.80452.4375 7.15625.27117 1.96162.34247 1.14024.4375-4.03125.0655-3.56368.26571-9.37382.4375-12.9375l.3125-6.5.18749 5.8125.15625 5.8125.28125-5.8125c.20581-4.522.29748-2.76554.40625 7.84375.17816 17.37749.74189 22.99703.90625 8.9375.0646-5.52985.25059-9.67903.40625-9.1875.15566.49155.39255-.81719.53125-2.90625.18544-2.793.30453-1.25218.4375 5.8125.15135 8.04097.19631 8.64299.3125 3.6875.0806-3.43602.3107-5.90625.5625-5.90625.25436 0 .47157-2.25971.5-5.46875.0267-3.01069.19204-6.68163.375-8.15625.28671-2.31077.36499-1.85547.5 3.34375.12553 4.83403.19186 5.29789.3125 2.34375.0828-2.0276.33526-3.6875.5625-3.6875.22723 0 .4516 2.07459.53125 4.59375l.15625 4.5625.15625-5.34375.1875-5.375.3125 3.34375c.17391 1.84328.37074 8.48285.4375 14.75.10956 10.28456.16538 10.93648.5 6.5.52975-7.02346.67676-7.6752.84375-3.375.12721 3.27601.16975 3.48956.375 1.5625.23516-2.20781.2632-2.18672.53125 1.125.1687 2.08431.32667-1.29504.4375-8.9375l.1875-12.28125.25 9.15625.25 9.15625.1875-12.0625c.15265-9.35532.23838-10.53402.34375-5.25.0804 4.03062.30508 6.8125.5625 6.8125.23937 0 .4375-1.0888.4375-2.40625 0-3.23745.49641-6.53125.96875-6.53125.21237 0 .375.60645.375 1.34375 0 2.37257.88272 1.43075.9375-1 .11313-5.01965.6824-5.19995 1.09375-.34375l.375 4.6875.53125-4.6875c.49238-4.49941.49669-4.12319.65625 9.375l.1875 14.09375.25-14.09375.21875-14.0625.21875 11.84375c.17415 10.63188.20122 11.22874.4375 5.8125l.28125-6.03125.1875 7.15625.1875 7.125.25-8.46875.25-8.5.15625 10.71875c.13396 8.65762.23092 10.00374.5 6.9375.18333-2.08905.39352-6.33411.46875-9.40625l.15625-5.5625.25 6.25c.14411 3.44079.29292 5.03023.34375 3.53125.15705-4.63119.65512-9.59395.9375-9.3125.14788.14741.39651 5.31428.53125 11.5l.25 11.25.125-15.40625c.14335-18.17774.81317-22.39533 1-6.25l.125 10.9375.25-7.59375c.10572-3.13358.25457-5.22403.34375-5.5.0172.0339.05.15534.0625.375.11249 1.97725.21217 2.21126.5 1.3125.19677-.61442.38175-2.10412.40625-3.3125.0604-2.97635.47443-2.3422.90625 1.375l.34375 3.0625.15625-3.34375c.12322-2.74265.19089-2.24927.40625 2.6875.2483 5.69184.29601 5.4313.46875-4.6875.16491-9.66044.18654-10.17024.40625-4.9375.13415 3.19502.38039 5.30193.53125 4.6875.2595-1.0569.28618-1.04503.34375-.0937.0335.55298.22339 1 .4375 1s .5738 1.05345.78125 2.34375l.375 2.34375.25-3.34375.28125-3.34375.15625 3.34375c.14811 3.04216.19477 3.1295.34375 1 .0903-1.2903.32957-2.34375.5625-2.34375s.45868-1.56402.5-3.46875l.0937-3.46875.28125 2.6875.3125 2.6875.0625-2.5625c.0413-1.41318.26707-2.5625.5-2.5625s.50349-1.05346.59375-2.34375c.0903-1.2903.24344 3.56226.34375 10.8125l.1875 13.1875.25-10.9375.25-10.96875.1875 10.96875c.18226 10.38515.19696 10.62188.4375 4.6875l.25-6.25.25 4.6875.21875 4.6875.15625-6.25c.0836-3.44078.29825-9.28218.46875-12.96875.27816-6.01449.31185-5.21888.46875 7.8125.15842 13.15815.21288 13.80391.4375 6.71875l.25-7.8125.21875 5.34375.21875 5.375.15625-6.03125c.0895-3.84138.27218-5.64885.5-4.9375.2401.74971.40906-.41372.5-3.5625l.125-4.6875.15625 3.6875c.0828 2.02761.32667 3.6875.5625 3.6875s.4375-.60643.4375-1.34375c0-.7373.19173-1.34375.4375-1.34375s.46875.60645.46875 1.34375c0 .73732.17125 1.34375.40625 1.34375.23501 0 .50893-1.46816.59375-3.25.0138-.28955.0457-.42502.0625-.46875.0831.36996.20605 3.13387.28125 7.28125.13907 7.66988.23039 9.00259.40625 5.59375l.21875-4.46875.25 6.03125.28125 6.03125.1875-8.71875.15625-8.71875.28125 7.15625.25 7.15625.0937-9.28125c.0593-5.82064.25074-9.25.53125-9.25.2775 0 .47809 2.66068.5 7.03125.0396 7.89079.57534 7.82382 1.125-.125.25332-3.6635.42998-4.50941.65625-3.34375.26293 1.35453.2928 1.22529.34375-1 .0324-1.41318.2393-2.5625.46875-2.5625s.52261-.57414.625-1.25c.004-.0254.0274-.0189.0313-.0313.0903.39012.18652 4.05783.21875 8.9375.041 6.20322.22662 10.26855.5 10.4375.28932.17882.46875-1.82013.46875-5.65625 0-6.38662.72388-7.63246 1-1.71875.0861 1.84299.2444-.39073.34375-4.9375l.15625-8.25.25 6.03125.25 6.03125.375-4.125c.31351-3.51464.44381-4.05619.96875-3.53125.3884.38838.68481 1.9442.78125 4.15625.0259.59337.0667.86284.0937.90625.0603-.29407.13392-1.88024.1875-4.5625.15437-7.72903.76901-7.72903.9375 0 .12057 5.53078.76143 4.16936.9375-2l .125-4.25.3125 6.03125c.1746 3.31791.38538 9.06344.46875 12.75.0608 2.69009.11697 4.24043.15625 4.5.0509-.42586.12742-2.93104.25-7.875l.25-10.03125.1875 15.40625.21875 15.40625.21875-16.53125.25-16.53125.15625 14.3125.1875 14.28125.375-8c .20065-4.39977.45098-8.19888.5625-8.46875.10587.16021.25283 2.20224.3125 4.875l.125 5.34375.25-4.03125c.12567-1.91212.21526-2.88865.28125-3.09375.0542.0632.12647.58183.21875 1.53125.0164.16897.0447.27789.0625.3125.11869-.18903.27019-3.02528.34375-7.21875.12489-7.11991.25405-8.52484.46875-5.8125l.28125 3.5625.125-3.5625c.16617-4.4063.76189-2.76871.96875 2.6875.0561 1.48017.0906 2.24845.125 2.40625.0286-.06.0793-.48569.125-1.3125.23728-4.29275.65561-7.125 1.03125-7.125.20019 0 .57038 1.14932.8125 2.5625l.4375 2.5625.0625-3.6875c.033-2.12157.24284-3.6875.5-3.6875.25497 0 .48304 1.58402.53125 3.6875.0396 1.72743.081 2.52773.125 2.53125.0314-.11741.0746-.60361.125-1.40625.0887-1.41318.34184-2.5625.5625-2.5625s.47224-1.05346.5625-2.34375c.0903-1.2903.20737 4.96687.28125 13.9375l.125 16.3125.625-5.34375c.73829-6.43246.9456-7.12641 1.125-3.59375.0749 1.47463.27145-2.83505.40625-9.59375l.25-12.28125.15625 13.15625c.18094 14.11197.71624 13.86507.9375-.4375.0632-4.08372.11779-5.93111.1875-6.0625.0518.16528.14611 1.07876.25 2.59375.35878 5.23195.875 6.2528.875 1.6875 0-1.80232.15942-3.12133.34375-2.9375.18433.18382.45674 4.38687.59375 9.34375.23195 8.39173.25913 7.92699.40625-6.84375l.15625-15.875.3125 9.53125c.31351 9.31683.79882 12.88381.96875 7.1875.0284-.95088.0626-1.5108.0937-1.65625.0509.1002.15168 1.03689.28125 3.03125l.25 4.25.1875-4.6875.15625-4.6875.28125 3.34375c.26973 3.16251.30943 3.01293.46875-2.46875l.15625-5.8125.25 4.9375c.24642 4.90762.24135 4.8913.6875 2.4375.39162-2.15394.47858-1.40965.6875 6.03125l.25 8.5.15625-12.0625c.15048-12.13374.70229-14.31947.96875-3.8125.10444 4.11808.16756 4.76349.28125 2.375.0848-1.78184.35874-3.25.59375-3.25s.40625.38347.40625.875c0 .49155.20457.90625.4375.90625s.50349-1.05345.59375-2.34375c.13001-1.85835.19498-1.57124.3125 1.4375l.15625 3.8125.3125-2.6875c.18296-1.47464.38564-4.18797.4375-6.03125l.0937-3.34375.59375 2.6875c.33274 1.47462.65248 5.4967.6875 8.9375.0351 3.44079.31579 9.56979.625 13.625l.56251 7.375.125-12.96875c.0658-7.12735.23506-16.57612.40625-21 .25947-6.70417.34651-4.53658.5 12.96875l.1875 21 .25-18.78125.21875-18.75.1875 16.53125c.10166 9.09351.31956 15.03078.46875 13.1875.26804-3.31172.26483-3.33282.5-1.125.0253.23743.0666.33538.0937.34375.11012-.25468.24313-2.21092.3125-5.25.0702-3.07214.19553-5.04728.28125-5.15625.0128.0567.0199.18246.0313.34375.32016 4.57646 1.01089 2.2992 1.09375-3.59375.0399-2.83768.0748-4.28557.125-4.5625.049.12319.1408.95842.25 2.4375.1542 2.08906.32922 3.17375.375 2.375.0458-.79875.28549-1.46875.53125-1.46875.24577 0 .46066-1.05345.5-2.34375.0489-1.60798.12646-1.90168.25-.90625.10498.84595.45505 1.46875.8125 1.46875.35747 0 .67627-.6228.78125-1.46875.004-.0299.0273-.0159.0313-.0313.0932.40696.2235 4.51624.28125 10 .066 6.26716.24391 12.58787.40625 14.0625.28018 2.5451.31687 2.40938.625-2.46875.17853-2.82636.35869-7.23191.40625-9.8125l.0937-4.6875.28125 4c .15287 2.21193.33531 3.52067.40625 2.90625l.125-1.09375.34375 1.09375c.26692.83344.3992.33365.5-2 .1076-2.49099.19466-1.97946.40625 2.46875.23692 4.98056.27833 4.42599.40625-4.9375.14781-10.8213.69542-16.4778.9375-9.59375l.125 3.5625.3125-2.4375c.26127-2.13199.32894-2.26296.46875-.90625.0887.8602.28889-.64027.4375-3.34375.20217-3.67813.30414-1.61403.4375 8.25.13958 10.32565.22829 12.04402.4375 7.84375l.28125-5.375.1875 4.46875c.1833 4.46697.1777 4.45045.43751-2.25l.25-6.6875.1875 7.59375.1875 7.59375.25-9.8125c.2036-8.01261.29469-8.76328.375-3.9375.11864 7.12908.94244 8.17454 1.0625 1.34375l.0625-4.5625.3125 3.34375.28125 3.34375.0625-2.59375c.0495-1.59877.25602-2.4826.53125-2.3125.28318.17501.46875-.99978.46875-3.1875 0-1.89875.093-3.34449.21875-3.21875.12574.12575.38272 1.71132.59375 3.53125.37589 3.2418.41195 3.27757.46875.90625.12876-5.37647.50128-1.26004 1.15625 12.28125.37962 7.84865.75586 14.56886.84375 14.9375.0879.36866.25872-7.16493.34375-16.75l.15625-17.4375.21875 15.1875c.10589 6.66654.26527 11.11635.375 11.46875.016-.0727.049-.2394.0625-.53125.19493-4.22782.20889-4.20302.46875 2.25.22234 5.52141.27581 4.42939.4375-7.375.18887-13.79113.18529-13.82762.4375-5.375l.28125 8.5.125-9.8125c.15405-10.22307.80698-11.1298.96875-1.34375.0447 2.70347.22967 6.31085.40625 8.03125.1126 1.09707.19574 1.75185.25 1.875.0677-.16689.12631-1.50312.1875-4.34375.0662-3.07214.29024-7.47767.46875-9.8125l.3125-4.25.15625 4.6875c.166 4.68509.17896 4.69733.4375-2.21875l.25-6.9375.15625 8.25.15625 8.28125.78125-7.15625.78125-7.15625.125 4.9375c.14429 4.81179.16512 4.82761.3125 1.21875.10935-2.67798.32187-3.6875.75-3.6875.35579 0 .75898-.92744 1.03125-2.34375.37307-1.94062.46527-.69728.5625 7.25.0679 5.54899.24735 8.96583.4375 8.0625.24965-1.18609.38172-.61246.46875 2.4375.10819 3.79179.12887 3.92713.53125 2.03125.23473-1.10598.5701-5.63864.75-10.0625l.34375-8.03125.125 7.59375c.17741 9.96102.83231 7.18194 1-4.25.0908-6.19692.14315-7.01842.25-3.25.0805 2.84179.34942 5.03125.59375 5.03125.23772 0 .40625-.4147.40625-.90625 0-.49153.22299-.875.46875-.875.27851 0 .46983 3.1529.53125 8.375l.0937 8.375.25-9.8125.25-9.84375.1875 9.375c.0809 3.93607.1821 6.00898.25 6.25.0312-.11143.0651-.60944.0937-1.53125.0802-2.57176.34173-4.80106.5625-4.9375.22075-.13643.58628-2.74508.8125-5.8125l.40625-5.59375.15625 4.9375.15625 4.90625.25-6.03125.28125-6.03125.1875 4.6875.1875 4.6875.25-5.8125.25-5.8125.0937 5.71875c.0551 3.43954.29274 5.6875.5625 5.6875.24577 0 .46386-1.05345.5-2.34375l.0625-2.34375.34375 2.6875c.18296 1.47462.39628 4.18796.46875 6.03125l.125 3.34375.28125-3.8125.28125-3.78125.125 3.78125.15625 3.8125.5625-4.6875c.47828-4.14232.54579-4.41979.65625-2.25.16044 3.15152.38492 1.9435.84375-4.46875.2998-4.18984.38591-2.11062.5 11.1875.10154 11.83317.24105 14.97241.46875 11.40625.17263-2.70347.36755-5.83152.4375-6.9375.0423-.66839.0845-1.06368.125-1.15625.0636.09.16132.80832.3125 2.28125.17657 1.7204.41264 5.32776.5 8.03125.0109.33793.0177.55525.0313.65625.0944-.47945.24136-5.11026.34375-12.0625l.25-16.3125.15625 15.21875.15625 15.1875.625-8.5c.70725-10.071.97038-12.28125 1.53125-12.28125.23072 0 .44947-1.05347.5-2.34375.0505-1.29031.23026.36959.375 3.6875l.25 6.03125.15625-7.375c.11902-5.3287.25108-6.68249.46875-4.90625l.3125 2.4375.15625-2.4375.15625-2.46875.21875 2.46875.25 2.4375.28125-3.125c.0969-1.10048.16736-1.76595.21875-1.90625.0664.15962.13051 1.4522.21875 4.15625.17482 5.35783.18297 5.34926.4375-2.6875.23421-7.39516.25439-6.81239.4375 7.15625l.21875 15.1875.21875-15.875.25-15.84375.0937 14.6875c.0568 8.08995.20301 14.64073.3125 14.53125.51095-.51096 1.25986-7.12794 1.5625-13.8125l.34375-7.375.15625 7.375.15625 7.375.28125-8.5.1875-6.375v-32.09375l-.1875 7.875c-.13657 5.7756-.31941 8.39309-.375 5.8125-.27911-12.95591-.97176-19.26904-1.53125-13.65625-.10129 1.01605-.23856.31237-.28125-1.65625-.0426-1.96078-.24701-3.46875-.5-3.46875-.28687 0-.50134 5.23007-.5625 14.625-.0801 12.31275-.12813 13.4226-.34375 7.03125-.19432-5.75978-.29827-6.71049-.4375-4l-.1875 3.5625-.25-4.90625-.28125-4.90625-.1875 4.90625-.15625 4.90625-.28125-3.5625-.28125-3.59375-.15625 4.71875-.1875 4.6875-.28125-4.6875-.25-4.71875-.1875 3.59375-.1875 3.5625-.15625-3.46875c-.11725-2.66639-.27964-3.4375-.78125-3.4375-.48388 0-.65625-.59053-.65625-2.25 0-1.22886-.19172-2.21875-.4375-2.21875-.2755 0-.49075 2.61117-.53125 6.8125-.0931 9.66036-.67461 4.29239-.84375-7.71875-.0871-6.18325-.23149-8.07467-.40625-5.8125-.0923 1.19428-.16123 1.93487-.21875 2.0625-.0853-.11324-.16921-1.62477-.34375-4.96875-.1796-3.4408-.50674-7.46288-.71875-8.9375-.35445-2.46519-.3955-2.21624-.53125 3.125-.13887 5.46385-.1681 5.61236-.40625 2.25-.21346-3.01371-.31229-2.25133-.59375 4.90625-.18364 4.66964-.35911 10.6069-.40625 13.1875l-.0937 4.6875-.28125-4.03125-.28125-4-.125 4.46875c-.27558 9.26332-.78986 10.27337-.90625 1.78125-.0661-4.82025-.25434-7.60698-.46875-6.9375l-.375 1.125-.0313-1.09375c-.0245-.59394-.1777-.9473-.34375-.78125s-.55156 3.7939-.84375 8.03125l-.53125 7.6875-.15625-5.8125-.125-5.8125-.28125 4.71875-.28125 4.6875-.1875-4.6875c-.0754-1.94427-.14284-3.05125-.1875-3.1875-.055.30537-.12235 2.08745-.25 5.625l-.25 7.15625-.0937-7.03125c-.0534-3.97569-.26513-7.03125-.5-7.03125-.22868 0-.50622.44702-.59375 1-.1329.83965-.91863-7.71448-1.40625-15.3125-.062.68721-.15287 4.3966-.1875 9.5-.046 6.77159-.2545 11.5-.5 11.5-.22945 0-.49137.54288-.59375 1.21875-.10239.67587-.26186-.85691-.34375-3.4375l-.15615-4.7187-.28125 3.59375c-.24552 3.10174-.31369 2.58485-.46875-3.8125l-.15625-7.375-.25 8.5c-.2053 6.88-.29175 7.61462-.40625 3.8125-.095-3.15534-.2594-4.34503-.5-3.59375-.22629.70658-.3927-1.09068-.46875-4.90625l-.125-6.03125-.3125 5.8125c-.17614 3.19502-.38879 6.00423-.46875 6.25-.0799.24577-.26434-2.78642-.40625-6.71875-.25772-7.14235-.27502-7.13756-.46875 4.46875l-.1875 11.625-.25-10.71875-.25-10.71875-.15625 8.25c-.0838 4.54676-.28113 8.88769-.46875 9.625l-.34375 1.34375-.125-1.34375-.0937-1.34375-.34375 1.34375-.34375 1.34375-.125-1.34375c-.0865-.92224-.2303-.56576-.4375 1.125-.3003 2.45049-.30238 2.42171-.375-1.03125-.0753-3.58095-.75391-4.73142-1.0625-1.78125-.0964.92164-.2505-.13182-.34375-2.34375-.14624-3.46885-.21498-3.04184-.4375 3.125l-.25005 7.15625-.15625-9.375c-.0904-5.53992-.30565-8.76708-.5-7.84375-.23287 1.10632-.36066.0726-.46875-3.5625l-.15625-5.125-.25 6.90625-.28125 6.9375-.0937-6.8125c-.054-3.91551-.25731-6.8125-.5-6.8125-.23231 0-.48758.95759-.5625 2.125-.13563 2.11379-.13974 2.09131-.875-1.46875l-.75-3.5625-.0625 3.34375c-.0634 2.4063-.21187 3.05211-.46875 2.25-.20873-.65176-.38027 2.38084-.40625 7.3125-.0245 4.64917-.19499 8.30502-.375 8.125-.18002-.18002-.44748-3.45778-.59375-7.3125l-.25-7.03125-.15625 8.5c-.1162 6.32729-.22209 7.70611-.4375 5.375-.25208-2.72802-.32257-2.87873-.4375-1.125-.12367 1.88723-.14861 1.91441-.46875.65625-.29296-1.15131-.34457-.98572-.4375 1.125-.0855 1.9411-.23982 1.2976-.71875-3.09375-.33352-3.05805-.68774-5.77139-.78125-6.03125-.003-.008-.028.004-.0313 0-.11187.24555-.32231 2.07196-.5 4.4375-.50304 6.69636-.96636 4.4186-1.15625-5.8125l-.125-8.03125-.28125 8.25-.25 8.28125-.1875-9.625c-.15173-7.67419-.21904-8.6944-.40625-5.125-.22132 4.21991-.26702 4.04108-.50001-3.34375-.20894-6.62252-.28166-5.34392-.4375 8.46875-.11587 10.27182-.24775 14.50187-.40625 11.40625-.16172-3.15862-.36496-4.34877-.53125-3.34375-.23074 1.39459-.26448 1.28526-.40625-.90625-.12273-1.89717-.2276-1.37185-.4375 2.25l-.28125 4.6875-.125-6.03125c-.0761-3.31791-.29261-8.64873-.46875-11.84375l-.3125-5.8125-.15625 8.46875-.125 8.5-.40625-6.46875c-.21053-3.56367-.54441-8.38393-.75-10.71875-.33672-3.82399-.38677-3.2268-.53125 6.03125l-.15625 10.28125-.25-6.71875-.28125-6.6875-.1875 10.5-.1875 10.5-.21875-6.9375-.25-6.9375-.375 4.25c-.19935 2.33483-.48297 5.46287-.65625 6.9375l-.3125 2.6875-.34375-1.8125c-.17764-.98309-.3098-2.61173-.3125-3.65625-.003-1.04453-.22298-1.90625-.46875-1.90625-.26434 0-.4754 1.93963-.53125 4.78125-.0863 4.3879-.10808 4.18709-.34375-2.34375-.218-6.0415-.31085-6.55329-.46875-3.34375-.0654 1.32925-.11254 2.12998-.15625 2.3125-.062-.22161-.15288-1.71616-.28125-4.78125l-.25-6.25-.15625 7.15625c-.23312 11.46814-.73262 10.74931-1.09375-1.5625-.61554-20.98621-.98853-22.46453-1.1875-4.6875l-.1875 16.09375-.25-10.5-.25-10.5-.21875 9.15625c-.18298 7.43092-.22982 5.89-.3125-8.15625l-.125-17.3125h-.375l-.3125 8.15625c-.17446 4.48532-.37695 8.24134-.46875 8.34375-.0918.1024-.20695-2.03576-.25001-4.71875l-.0937-4.875-.3125 5.375c-.17268 2.94925-.4772 9.78054-.6875 15.1875-.21031 5.40695-.47566 9.23731-.59375 8.5-.16243-1.01413-.29113-.6845-.5 1.34375-.27539 2.67423-.26883 2.67213-.34375-1.03125-.0441-2.18025-.25376-3.62093-.5-3.46875-.23062.14253-.49704-.47947-.59375-1.40625-.0967-.92679-.24211.51527-.3125 3.21875-.15398 5.91394-.73355 4.51019-.9375-2.25l-.125-4.46875-.28125 3.59375c-.27338 3.45371-.29826 3.36227-.4375-2.25l-.125-5.8125-.375 4.71875c-.54209 6.77874-.71809 7.35633-.875 3.34375l-.125-3.59375-.3125 2.46875c-.26575 2.16862-.30896 1.92136-.4375-2.21875-.12854-4.1401-.17174-4.41863-.4375-2.25-.2565 2.09307-.34469 2.2382-.46875.90625-.12406-1.33196-.181-1.21807-.4375.875l-.28125 2.46875-.0937-2.4375c-.11086-3.68407-.54182-2.43905-.9375 2.71875l-.34375 4.625-.125-7.375c-.1283-7.91365-.71144-7.34024-.9375.90625l-.125 4.25-.28125-3.8125-.28125-3.78125-.15625 5.34375c-.17104 5.23681-.1983 5.28726-.34375 1.46875-.0819-2.15049-.33587-3.90625-.5625-3.90625s-.48059-1.787-.5625-3.9375c-.0133-.34945-.0484-.52995-.0625-.59375-.0659.37082-.13664 3.51997-.1875 8.3125-.0678 6.39004-.32002 12.00846-.53125 12.5-.22667.52756-.38771-4.41114-.40625-12.09375-.0173-7.15808-.15889-13.66947-.3125-14.4375-.32301-1.61508-1.02829-1.85272-1.09375-.375-.0427.96456-.063.94673-.40625-.125-.231-.72131-.41276.86224-.5 4.46875l-.125 5.59375-.25-5.59375-.25-5.5625-.375 8.9375c-.21126 4.91541-.53604 10.11912-.71875 11.59375l-.34375 2.6875-.125-2.21875c-.0652-1.22886-.24989-2.85644-.4375-3.59375-.2943-1.15657-.36537-.99538-.46875 1.125-.0692 1.41878-.20504 1.92814-.3125 1.21875-.12457-.82226-.45579-1.21875-1-1.21875-.64117 0-.90295-.53691-1.25-2.5625-.31779-1.85482-.4586-2.17337-.5-1.125-.0315.79875-.25423 1.46875-.5 1.46875-.27488 0-.4375-2.25524-.4375-5.8125 0-3.37316-.20809-5.87016-.46875-6.03125-.24577-.15191-.4654-1.2221-.5-2.375l-.0625-2.09375-.40625 2.4375c-.2261 1.35174-.56621 6.39497-.75 11.1875-.21666 5.64962-.37589 7.44279-.46875 5.125-.0788-1.96616-.29825-6.59469-.46875-10.28125l-.3125-6.6875-.15625 6.03125-.1875 6.03125-.25-6.9375c-.24073-6.43991-.25638-6.59121-.34375-2.1875-.0517 2.60495-.2614 6.33944-.4375 8.28125-.26609 2.93422-.35166 3.26857-.59375 1.96875-.16021-.8602-.33707 1.75728-.40625 5.8125-.13418 7.86572-.23387 7.89022-.6875.3125-.32792-5.47781-1.09375-6.4805-1.09375-1.4375 0 3.65181-.88064 4.75616-.96875 1.21875-.0291-1.16742-.20039-2.73144-.375-3.46875-.27753-1.17186-.34137-.99996-.625 1.34375-.54735 4.52289-.59338 4.58294-.65625.84375-.0903-5.36753-.59786-10.4375-1.03125-10.4375-.2097 0-.42296 1.65989-.46875 3.6875l-.0625 3.6875-.28125-3.8125c-.12472-1.68977-.22461-2.56396-.28125-2.75-.0418.0576-.0788.51788-.125 1.40625-.10237 1.96878-.21341 2.23865-.5 1.34375-.25689-.80212-.4046-.098-.5 2.46875l-.125 3.5625-.28125-4.90625c-.0956-1.73996-.17294-2.80726-.21875-3.03125-.0587.21193-.1074 2.23594-.1875 6.59375l-.15625 8.5-.375-9.15625c-.19775-5.03831-.52365-10.87969-.71875-12.96875-.30619-3.27847-.35891-2.34525-.5625 6.71875l-.25 10.5-.0937-10.46875c-.0546-5.75514-.2489-10.34485-.40625-10.1875-.15736.15735-.42241 4.36039-.59375 9.34375-.30535 8.88067-.2949 8.94374-.4375 3.25-.11587-4.62627-.2289-5.30102-.46875-3.34375-.24069 1.96401-.31667 1.29847-.4375-3.34375l-.15625-5.8125-.34375 6.25c-.19483 3.44079-.62735 8.57988-.96875 11.40625l-.625 5.125-.15625-3.5625-.125-3.59375-.3125 2.46875c-.21737 1.77374-.33237 2.0925-.4375 1.125s-.22013-.64875-.4375 1.125c-.24198 1.97462-.33995 1.29228-.46875-3.375l-.15625-5.8125-.28125 4.71875-.28125 4.6875-.15625-6.03125c-.14797-5.10092-.22954-5.55117-.4375-2.90625-.16145 2.05341-.31232-.26514-.46875-6.71875l-.25-9.8125-.15625 11.15625c-.1525 9.75286-.22599 10.54125-.5 6.25-.17262-2.70349-.38531-7.332-.46875-10.28125l-.15625-5.34375-.25 7.375-.25 7.375-.125-7.375c-.19048-10.53742-.93664-7.42949-1.375 5.8125-.1912 5.7756-.39964 9.38298-.46875 8.03125-.10865-2.12512-.17379-2.28416-.46875-1.125-.25563 1.00461-.35228.46022-.4375-2.21875-.0625-1.96616-.20599-3.11548-.3125-2.5625s-.39632 1-.625 1-.43967 2.13921-.46875 4.78125c-.0631 5.7344-.69202 4.28788-.8125-1.875-.15701-8.0315-.81283-8.0315-.96875 0-.067 3.4522-.11877 5.24309-.15625 5.5625-.0314-.15254-.0719-1.25023-.125-3.21875-.13016-4.82898-.2116-5.25-1-5.25-.72699 0-.86326.38346-1 2.5625-.1444 2.3012-.17433 2.19537-.25-.90625-.0465-1.90472-.29505-3.4375-.53125-3.4375s-.48059-1.787-.5625-3.9375c-.10553-2.7705-.21492-1.75562-.34375 3.46875-.11126 4.51171-.21931 6.02538-.3125 3.90625-.17322-3.93887-.90983-4.61622-1.15625-1.09375-.14481 2.06996-.14582 1.96549-.21875-.84375-.0455-1.75112-.25317-3.85803-.4375-4.6875-.28569-1.2856-.37669-1.01314-.59375 1.84375-.16173 2.12863-.26137.0285-.3125-5.71875-.0505-5.68098-.25071-9.03125-.53125-9.03125-.27832 0-.47573 3.07683-.53125 8.15625-.085 7.77848-.11881 7.90151-.375 3l-.25-5.125-.1875 3.78125-.15625 3.8125-.28125-2.6875-.3125-2.6875-.15625 2.6875c-.0943 1.47462-.29779-1.047-.4375-5.59375l-.25-8.25-.15625 11.375c-.22841 17.13202-.75415 20.17363-.9375 5.375-.0915-7.38616-.25133-10.86746-.40625-8.71875l-.28125 3.59375-.375-4.375c-.21105-2.39627-.56471-4.34375-.78125-4.34375s-.42445 5.5861-.46875 12.40625c-.0443 6.82013-.15795 11.4174-.25 10.25-.13778-1.74738-.31567-2.09375-1.03125-2.09375-.78614 0-.88507-.35333-.9375-3.6875l-.0625-3.6875-.34375 3.125c-.20307 1.72039-.5806 3.92316-.8125 4.90625l-.40625 1.78125-.125-2.6875-.125-2.65625-.28125 2.65625c-.26994 2.43994-.32 2.25448-.46875-2.21875l-.15625-4.90625-.28125 4.90625c-.12693 2.30914-.20248 3.49499-.25 3.6875-.0374-.0448-.0887-.82647-.125-2.25-.0699-2.74118-.21945-3.4375-.75-3.4375-.56465 0-.67491-1.16418-.75-7.28125l-.0937-7.25-.28125 5.125c-.22746 4.3519-.26545 4.70977-.40625 2.25l-.1875-2.90625-.28125 2.90625c-.2102 2.08665-.3296.5057-.4375-5.59375-.14699-8.30929-.18134-8.1924-.5 5.28125-.17908 7.5719-.40709 13.87583-.53125 14-.12416.12416-.36564-2.15896-.53125-5.0625s-.3437-5.4786-.40625-5.71875c-.0625-.24014-.55246 1.67504-1.0625 4.25l-.90625 4.6875-.0937-3.375c-.0531-1.84329-.25793-4.65249-.4375-6.25-.26517-2.35906-.35254-1.51963-.46875 4.46875l-.15625 7.375-.3125-4.6875c-.17444-2.5806-.36607-5.90038-.4375-7.375-.11838-2.44391-.14848-2.53553-.375-.90625-.19933 1.43369-.28872 1.04659-.5-2-.25391-3.66118-.2693-3.56482-.40625 2.25-.0947 4.02309-.28045 5.51177-.5 4.46875-.19474-.92519-.37537 2.2614-.46875 7.8125l-.15625 9.375-.25-10.28125c-.21468-8.86861-.26829-9.48144-.40625-4.46875-.1772 6.4381-.32381 6.30416-.74999-.78125-.31242-5.19397-.9277-6.35898-1.1875-2.21875-.0887 1.41318-.25421-3.37476-.34375-10.625-.13555-10.97572-.21234-12.2772-.46875-7.8125-.16938 2.94925-.3826 9.07824-.46875 13.625l-.15625 8.28125-.25-8.0625c-.12285-3.87886-.1948-5.84279-.25-6.21875-.0425.19741-.09 1.32997-.15625 3.3125l-.1875 5.15625-.3125-5.8125c-.17613-3.19502-.34698-8.5894-.375-11.96875l-.0625-6.125zm296.40631 34.96875c-.007-.0249-.024-.0568-.0313-.125-.14427-1.35174-.47299-2.46875-.71875-2.46875-.24577 0-.57449 1.11701-.71875 2.46875l-.25 2.46875-.15625-2.46875-.125-2.46875-.3125 2.46875-.3125 2.46875-.0625-2.34375c-.04-1.2903-.2698-2.34375-.5-2.34375-.23019 0-.49462-.67-.59375-1.46875-.0991-.79876-.23704.76527-.3125 3.46875-.12776 4.57702-.15899 4.71531-.46875 2.21875-.18296-1.47463-.34833-4.02855-.375-5.6875-.0266-1.65896-.23856-3-.46875-3-.2302 0-.49463-.67-.59375-1.46875-.13088-1.05463-.23893-.78475-.34375 1l-.125 2.46875-.3125-2.46875c-.2138-1.74464-.3571-.23631-.46875 5.15625-.13939 6.73231-.16914 7.12667-.40625 3.5625l-.28125-4.03125-.21875 3.59375-.21875 3.5625-.15625-4.6875c-.074-2.5806-.28675-5.19808-.46875-5.8125-.28316-.95605-.38314-.75955-.78125 1.34375-.40941 2.16298-.48905 1.46296-.625-5.8125-.14769-7.90356-.17288-7.70187-.40625 4.6875l-.25 12.96875-.0937-10.28125c-.0585-5.65273-.22266-11.01586-.375-11.9375-.31117-1.88257-1.0625-2.28013-1.0625-.5625 0 .69511-.23918 1.09375-.65625 1.09375-.57478 0-.69986 1.5516-.78125 10.84375-.0522 5.95993-.13976 8.67329-.21875 6.03125-.0805-2.69331-.35169-4.78125-.59375-4.78125-.23746 0-.4375.47931-.4375 1.09375 0 .61442-.19174 1.125-.4375 1.125-.24577 0-.48267-1.14932-.53125-2.5625-.0547-1.59135-.20766-.70057-.375 2.34375l-.25 4.90625-.15625-4.90625c-.14876-4.47324-.19881-4.68995-.46875-2.25l-.3125 2.6875-.125-3.5625-.15625-3.59375-.3125 2.46875c-.23392 1.90894-.34355 1.04662-.46875-3.8125l-.15625-6.25-.25 4.9375-.28125 4.90625-.15625-6.03125c-.14425-5.32121-.23052-4.44991-.6875 7.375l-.53125 13.40625-.0937-13.875c-.0566-7.61889-.26541-14.64192-.46875-15.625l-.375-1.78125-.0937 2.21875c-.0574 1.22885-.24988 2.85644-.4375 3.59375-.30671 1.20535-.38313 1.10268-.5-.90625l-.1251-2.21875-.28125 2.90625c-.27067 2.68677-.29292 2.5035-.4375-2.25l-.15625-5.125-.3125 6.6875c-.1705 3.68656-.3865 10.42199-.46875 14.96875l-.15625 8.28125-.25-6.03125c-.19981-4.81545-.30552-5.51519-.5-3.375l-.21875 2.6875-.0937-3.46875c-.0465-1.90472-.2698-3.4375-.5-3.4375s-.49463-.67-.59375-1.46875c-.0991-.79876-.24409.6694-.3125 3.25-.0685 2.58059-.28114 5.29394-.46875 6.03125l-.34375 1.34375-.0625-1.625c-.029-.88735-.19068-2.57954-.375-3.78125l-.3438-2.1875-.25 2.65625c-.19244 1.98418-.28814 1.2164-.34375-3-.0455-3.4503-.26064-5.6875-.53125-5.6875-.24578 0-.4375.38346-.4375.875 0 .49155-.19173.90625-.4375.90625-.27474 0-.50082 2.70405-.5625 7.03125-.083 5.82001-.14017 5.01388-.34375-4.59375l-.25-11.59375-.1875 10.71875-.1875 10.71875-.25-9.84375-.25-9.8125-.1875 7.375c-.1631 6.61523-.21722 6.97035-.46875 3.5625-.23002-3.11626-.308-2.27825-.4375 4.6875l-.15625 8.5-.375-7.375c-.20893-4.05522-.55059-10.88651-.75-15.1875l-.375-7.8125-.15625 10.5-.15625 10.5-.25-9.25c-.1402-5.0793-.40945-9.3782-.59375-9.5625s-.38304 3.85929-.4375 9l-.0937 9.34375-.25-10.28125c-.1086-4.48685-.24102-7.4684-.3125-7.6875-.01.0568-.0244.20069-.0313.40625-.0545 1.64444-.28548 3.12935-.53125 3.28125-.25598.15821-.46875 2.46286-.46875 5.40625 0 5.92706-.87629 12.45937-1.375 10.21875l-.28125-1.34375-.0625 1.25c-.0332.77091-.29825 1.21875-.71875 1.21875-.46414 0-.70132.52713-.75 1.6875-.0701 1.67184-.1749.79472-1.03125-7.59375-.19444-1.90473-.54028-3.46875-.75-3.46875-.2097 0-.42064-.44702-.46875-1-.0481-.55298-.19419 1.10691-.34375 3.6875-.0918 1.58356-.16969 2.51783-.21875 2.6875-.063-.22353-.11313-2.13562-.15625-6.15625-.0545-5.08053-.25287-8.15625-.53125-8.15625-.24576 0-.46498.63874-.46875 1.4375-.005 1.10204-.10879 1.28989-.4375.78125-.33665-.52093-.44012-.35437-.5.6875-.0525.91246-.16641.61452-.375-.90625l-.3125-2.21875-.15625 1.78125c-.11844 1.41978-.20792 1.14085-.4375-1.34375-.18458-1.99753-.33393 1.15665-.4375 8.71875-.10422 7.61118-.27281 10.47257-.4375 8.03125l-.25-3.78125-.34375 2.90625c-.18432 1.59751-.39115 3.80028-.46875 4.90625s-.20675-.20277-.28125-2.90625c-.13363-4.85066-.12807-4.87934-.5625-2.34375-.24213 1.41318-.59273 2.5625-.78125 2.5625s-.50705-2.17046-.71875-4.8125c-.33766-4.21396-.41671-4.49972-.59375-2.34375l-.21875 2.46875-.28125-2.46875c-.24286-2.07608-.31842-1.68341-.4375 2.46875-.13631 4.75224-.15309 4.80814-.46875 2-.17956-1.59751-.38985-4.21499-.46875-5.8125-.10288-2.0829-.21665-1.25953-.40625 2.90625l-.25 5.8125-.0937-4.8125c-.0541-2.84375-.26671-4.78125-.53125-4.78125-.24577 0-.46731-1.14932-.5-2.5625-.0582-2.51262-.0737-2.51336-.4375.9375-.52622 4.99072-.7769 5.12828-.90625.5l-.0937-4.03125v36.25c.0303.69028.0788 1.82239.125 3.3125l.1875 6.03125.28125-5.15625c.12906-2.46923.20354-3.71764.25-3.90625.0365.0647.0564.91877.0937 2.46875.12944 5.35337.9624 4.63963 1.0625-.90625.0621-3.43927.14184-3.97046.3125-2.125l.25 2.46875.28125-2.46875.28125-2.4375.0937 2.90625c.0542 1.59751.26541 3.70443.46875 4.6875.2773 1.34062.41988.17224.53125-4.6875l.125-6.5.28125 8.71875.25 8.71875.15625-6.9375c.0869-3.80945.23725-6.45923.34375-5.90625.42309 2.19655 1.03125.82094 1.03125-2.34375 0-2.68113.12002-3.34375.65625-3.34375.54877 0 .67769.84845.75 4.78125l.0937 4.8125.25-4.90625.25-4.9375.34375 3.8125c.18285 2.08905.37986 7.41987.4375 11.84375.0816 6.26312.15484 4.92923.34375-6.03125l.25-14.09375.15625 14.09375c.0986 7.74179.31813 12.75376.46875 11.15625.29242-3.10147.62671-2.9022 1.21875.6875.25581 1.551.43865-1.72298.59375-10.71875.23941-13.88549.84824-14.89893.9375-1.5625l.0313 7.8125.59375-4.25c.32893-2.33482.65702-4.44173.71875-4.6875.0617-.24578.22545 1.6694.375 4.25l.28125 4.6875.1875-6.03125c.15538-5.58032.17307-5.78767.4375-2.6875l.28125 3.34375.125-2.90625c.073-1.5975.28917-4.215.46875-5.8125l.34375-2.90625.0937 2.46875c.19932 4.3475.82916 5.10119.9375 1.125.16976-6.22943.74604-1.61945.90625 7.15625l.15625 8.03125.25-6.9375.28125-6.90625.1875 10.5c.14449 8.36188.20837 9.54867.40625 5.8125.137-2.58683.38048-4.20967.53125-3.59375.1504.61442.33946-2.29066.40625-6.46875.0668-4.17811.23687-10.0195.40625-12.96875.25984-4.52442.35465-3.34025.5 7.59375.15677 11.7924.20189 12.33409.4375 6.03125.19631-5.25156.27397-6.10358.40625-3.5625l.1875 3.34375.28125-3.34375.28125-3.34375.1875 2.4375c.10771 1.53592.27303.20749.4375-3.5625.23327-5.34742.26874-4.66361.4375 6.03125l.1875 12.0625.25-9.8125.25-9.84375.21875 14.0625.1875 14.09375.25-17.4375c.11621-8.46614.19456-12.5349.25-13.0625.0375.44641.0746 2.5576.125 6.125.15918 11.26688.77117 16.19564 1 8.0625l.125-4.6875.25 4.6875c.20124 3.81252.32542 4.35865.59375 2.90625.18161-.98307.34105-3.12814.34375-4.75.003-1.62187.11745-4.53109.28125-6.46875.29443-3.48328.31942-3.50766.875-1.96875.30904.85607.57505 2.52009.59375 3.6875.0241 1.50685.21145 2.125.65625 2.125.84101 0 1.58423-2.30306 1.65625-5.09375.0555-2.1497.0958-2.1938.40625-.71875.26525 1.26022.33217.91919.40625-1.78125.0505-1.84328.27196-4.26903.46875-5.375.21411-1.20325.40182 5.17945.46875 15.875.067 10.69556.25465 17.04701.46875 15.84375.1968-1.10596.38875-4.01104.4375-6.46875.0488-2.4577.22967-5.87335.40625-7.59375l.3125-3.125.1875 3.78125c.10551 2.38109.24898.32016.40625-5.5625l.25-9.40625.15625 7.84375c.0798 4.30099.28794 9.6318.46875 11.84375l.3125 4 .125-5.8125c.10729-6.26444 1.07148-12.5794 1.46875-9.59375.11942.89752.26167-.0703.34375-2.25.0787-2.08905.24462-3.14251.34375-2.34375.10931.8809.42308 1.46875.8125 1.46875.49949 0 .65444-.81907.71875-3.6875.0613-2.73347.1283-3.08323.25-1.34375.0902 1.2903.36082 2.34375.59375 2.34375s.45421.66999.5 1.46875c.0458.79875.22081-.25469.375-2.34375.19525-2.64531.34005-.15274.46875 8.25l.15625 12.0625.25-13.1875.25-13.1875.1875 14.09375c.15923 11.55527.25916 12.94817.46875 7.8125l.25-6.25.21875 6.25c.21696 6.04613.24243 5.94138.375-3.34375.1802-12.62279.77086-16.87577.96875-6.9375.0848 4.26117.23335 6.15229.375 4.6875.23308-2.41006.23847-2.3809.5 1.34375l.28125 3.8125.125-5.15625c.0908-3.28709.25088-4.56291.4375-3.5625l.28125 1.5625.375-2c1.00868-5.72663 1.06094-5.77768 1.21875-.90625.13228 4.0833.18455 3.65621.40625-3.34375l.25-8.0625.1875 10.75c.15814 9.15793.21484 9.95068.4375 5.5625l.25-5.125.25 5.125.21875 5.15625.0937-5.03125c.0526-2.76492.2698-5.03125.5-5.03125.23021 0 .49463.67.59375 1.46875.0991.79875.25631-1.27583.34375-4.59375l.15625-6.03125.28125 4.6875c.14955 2.58059.32688 4.24049.375 3.6875.0481-.55298.28548-1 .53125-1s .47092-1.14931.5-2.5625c.0435-2.11465.0943-2.35331.375-1.25.29235 1.14888.38046 1.01253.46875-1.09375l.0937-2.46875.53125 2.46875c.49308 2.20633.57715 2.29721.78125 1.09375.57611-20.74022 3.06009-1.46838.00015-15.28125zm-95.43755-20.78125c-.0409.0196-.1017.64982-.15625 2 .0574-1.42124.11352-2.04882.15625-2zm-29.3125.78125c-.0474 2.02828-.09 3.29642-.15625 3.875.0662-.57858.1088-1.84672.15625-3.875zm61.1875.65625c-.0917 1.04452-.19705 3.16303-.28125 5.71875.0842-2.55572.18959-4.67423.28125-5.71875zm-59.15625 1c-.0374-.0105-.0821.0196-.125.0625.0429-.0429.0876-.0418.125-.0313-.006-.003.006-.0296 0-.0313zm62.125 2.09375c-.0148.0682-.045 1.17496-.0625 1.5625.0316-.80496.0406-1.46179.0625-1.5625zm-13 .21875c-.0329.0173-.0606 1.00412-.0937 3.09375.0331-2.08963.0609-3.0764.0937-3.09375zm-35.3125 1.5625c-.0232-.0282-.0323.21335-.0625.75.0201-.35777.0458-.57674.0625-.6875-.004-.0191.004-.0581 0-.0625zm49.65625 4.125c-.036.0802-.0602.28708-.0937.59375.0336-.30667.089-.51351.125-.59375-.007.006-.024-.0161-.0313 0zm-25.78125 2.53125c-.028.0832-.0657.1432-.0937.15625.0347.005.0593-.0538.0937-.15625zm-24.6875.15625c-.0503.14006-.0975.78519-.15625 1.96875.0588-1.18356.10596-1.82869.15625-1.96875zm5.09375 1.1875c-.0795.56042-.20049 1.01216-.3125 1.25.11201-.23784.23296-.68958.3125-1.25zm1.53125.21875c-.0258.004-.0359.0805-.0625.21875.0234-.12156.0708-.17059.0937-.1875-.005-.004-.0261-.032-.0313-.0313zm-12.71875.3125c-.0509 1.4842-.0918 2.34327-.15625 2.6875.0645-.34423.10532-1.2033.15625-2.6875zm9.84375 0c-.0424 1.04453-.0933 1.82535-.15625 2.25.063-.42465.11385-1.20548.15625-2.25zm23.25.5625c-.015 2.38529-.11604 4.14384-.28125 4.875.16521-.73116.26625-2.48971.28125-4.875zm-53 .625c-.11972.39003-.28678 1.42879-.40625 2.6875.11947-1.25872.28653-2.29748.40625-2.6875zm33.28125 2.40625c.0291 0 .0639.0312.0937.0625-.0343-.0409-.0603-.0625-.0937-.0625zm.84375.0937c-.0285 1.5794-.0968 2.57711-.15625 2.78125.0595-.20414.12775-1.20185.15625-2.78125zm11.1875 0c-.0707.81704-.10802 1.22327-.15625 1.28125.0482-.058.0855-.46421.15625-1.28125zm-28.21875.625c-.0723-.0691-.18827.4862-.3125 1.5.12423-1.0138.24023-1.56909.3125-1.5zm41.6875 1.4375c-.0277.0259-.066.0365-.0937.0313.0423.0267.0513.0157.0937-.0313zm-53.03125.5c-.0659.16019-.0988.74721-.15625 1.8125.0574-1.0653.0904-1.65231.15625-1.8125zm64.875.8125c-.0496.64117-.10285 1-.15625 1 .0534 0 .10668-.35883.15625-1zm-23.3125 3.59375c-.0491.48609-.1057.71223-.15625.6875.0505.0247.10716-.20141.15625-.6875zm-12.65625 8.28125c.0223.0177.0721.0623.0937.125-.0289-.0836-.0638-.12128-.0937-.125zm22.09375 1.46875c.11128.20932.20125.56436.25 1.0625-.0488-.49814-.13872-.85318-.25-1.0625zm-39.21875.9375c.0555.28801.16086.53641.28125.71875-.11435-.18088-.228-.44226-.28125-.71875zm18.59375.84375c.0932-.1434.23805 3.38754.3125 8.65625-.0745-5.26871-.21934-8.79965-.3125-8.65625zm.3125 8.65625c.046 3.25568.11241 5.78063.1875 7.3125-.0751-1.53187-.1415-4.05682-.1875-7.3125zm14.90625-8.3125c.0193.0243.0686.0637.0937.125-.0377-.092-.0683-.11719-.0937-.125zm-32.21875 1.625c.10989.85284.25902 2.63262.375 5.09375-.11688-2.48017-.26455-4.24979-.375-5.09375zm-17.09375.65625c.0675 2.52548.14552 4.40038.21875 5.46875-.0728-1.07261-.1517-2.96071-.21875-5.46875zm22.59375.59375c.026.14604.0388.16764.0625.125-.0136-.0227-.0481-.0444-.0625-.125zm-8.59375.25c.0421.27525.0792.40803.125.40625-.0365-.0461-.0913-.18605-.125-.40625zm49.46875.0313c.0701 1.66985.1455 2.86584.21875 3.46875-.0733-.60291-.14864-1.7989-.21875-3.46875zm-62.3125.3125c.0691.36008.11057 1.04682.125 2.125-.0144-1.07818-.0559-1.76492-.125-2.125zm74.15625.8125c-.0248.0637-.0613 1.08732-.0937 2.09375.0382-1.21375.0661-1.88274.0937-2.09375zm-43.5625.4375c.0465.43572.11812.70048.15625.78125-.0381-.0808-.10975-.34553-.15625-.78125zm-30.40625 2.46875c.0445.6433.10841 1.05502.1875 1.25-.0791-.19498-.14302-.6067-.1875-1.25zm.1875 1.25c.0351.0867.054.12209.0937.125-.0291-.0177-.0674-.06-.0937-.125zm11.09375-.71875c.0299.24269.0581.35054.0937.34375-.0274-.035-.0699-.1496-.0937-.34375zm-12.40625.25c.0409.51833.0931.80756.125.71875-.0261-.0701-.0946-.32296-.125-.71875zm45.9375 3c .0799 1.71762.15054 2.66234.21875 2.6875-.0682-.0252-.13884-.96988-.21875-2.6875zm24.53125 1.8125c.11158.50923.24077.83357.34375.9375-.10298-.10393-.23217-.42827-.34375-.9375zm-33.34375.125c.0437.17847.10218 1.45578.1875 3.65625-.0853-2.20047-.14381-3.47778-.1875-3.65625zm-12.15625 5.15625c.0422 1.07055.0886 1.89734.125 2.03125-.0388-.14294-.0781-.8189-.125-2.03125zm.125 2.03125c.011-.0335.0519-.25356.0625-.375-.017.17312-.049.33375-.0625.375z"
       fill="url(#b)"
       id="path12" />
    <path
       d="m737.82409 582.38823-.0937 24.21685-.125 24.26783-.21875-20.44412-.25-20.39314-.34375 16.00862c-.5216 24.25641-.86234 33.18983-1.28125 33.18983-.20891 0-.375-2.44794-.375-5.45516 0-8.48588-.8727-6.69478-.96875 1.98833-.0456 4.12274-.15945 5.78242-.25 3.67076-.0902-2.10506-.36081-3.82371-.59375-3.82371-.23292 0-.43528-1.76965-.46875-3.8747-.0334-2.10507-.14348-3.04345-.25-2.14128-.35526 3.00913-1.04129 1.68343-1.125-2.19226l-.0937-3.82371-.15625 3.82371c-.0902 2.10506-.34241 3.82371-.5625 3.82371-.22008 0-.47223-1.71865-.5625-3.82371-.13095-3.05377-.18949-2.59898-.3125 2.34521-.0848 3.40819-.24463 5.12684-.34375 3.82372-.0991-1.30314-.34515-2.34522-.5625-2.34522-.21736 0-.47223-1.71865-.5625-3.82371-.1073-2.50237-.22027-1.29956-.3125 3.46683-.35253 18.21906-.77329 18.01175-.9375-.40786-.15894-17.82721-.18828-18.13403-.4375-7.64743-.19625 8.25738-.29561 9.71647-.4375 5.86303-.13425-3.646-.25317-1.80786-.4375 6.52581l-.25 11.67507-.21875-11.67507-.1875-11.62409-.25 15.65173-.25 15.65174-.15635-19.67938c-.0906-11.04297-.2892-18.40936-.46875-16.77336-.23728 2.16208-.38263.76086-.5-5.45516l-.15625-8.36119-.21875 12.03195-.25 12.03195-.4375-13.51045-.46875-13.45947-.21875 27.3268-.25 27.32681-.1875-22.22852c-.14033-16.19364-.25537-19.97312-.4375-13.86734-.15703 5.26456-.337 7.46528-.5 5.86303-.17553-1.72555-.31811-.57083-.40625 3.61978-.10187 4.84279-.18022 5.66484-.4375 3.67077-.23517-1.82271-.36769-.2733-.46875 5.45516-.0822 4.66029-.21712 6.4048-.3125 4.1806-.11713-2.73141-.35082-3.82372-.8125-3.82372-.39018 0-.67482-.77916-.71875-1.98833-.04-1.10265-.20936-.21697-.375 1.98833l-.3125 4.02765-.0937-3.31389c-.0542-1.80435-.2654-4.56508-.46875-6.16892-.36576-2.88493-.35541-2.8725-.40625 1.27457-.0282 2.30553-.2304 4.18059-.4375 4.18059-.20711 0-.50081-5.99229-.65625-13.30652-.17046-8.02082-.47379-13.41123-.75-13.56144-.25189-.13704-.46875-.8981-.46875-1.73342 0-.83535-.14075-1.29984-.3125-1.01965-.17174.28018-.43952 8.80318-.59375 18.91463l-.25 18.35383-.15625-20.39314c-.146-23.63281-.68051-35.42174-.90625-19.67938-.0949 6.61808-.21831 8.35745-.40625 5.81205-.22787-3.08619-.32413-2.30856-.65625 5.09828-.21575 4.81156-.5522 14.34152-.71875 21.15788-.14471 5.92192-.22683 8.74939-.28125 9.02397-.0329-.3374-.0666-1.90392-.0937-4.48649-.0678-6.42025-.20089-7.80038-.75-7.80038-.50398 0-.67901.94593-.71875 3.82371-.0452 3.27154-.11466 3.5009-.40625 1.63145l-.34385-2.19226-.0937 2.19226-.0937 2.19227-.34375-2.19227c-.2957-1.89597-.35388-1.64058-.46875 1.83539-.11196 3.38757-.19057 2.89426-.46875-2.95701-.53027-11.15394-1.20542-19.87926-1.6875-22.22852-.35467-1.72831-.4635-.26766-.53125 6.93367-.0471 5.01203-.22544 12.04306-.40625 15.65173-.29884 5.96459-.32508 5.40338-.4375-6.5258-.1457-15.45972-.76478-14.02242-.9375 2.19226l-.125 10.91033-.34375-7.54546c-.1952-4.15128-.44566-7.71174-.5625-7.90234-.11684-.19064-.3407 1.90139-.5 4.63944-.50101 8.61226-.59507 7.62408-.75-9.94166l-.125-17.13024-.0625 4.28256v52.35939l.0625-3.46684.15625 15.34584.15625 15.29485.5-11.31819c.39405-9.32638.52514-10.59989.75-7.29054l.25 4.02764.1875-4.02764c.0917-2.20529.26385 1.07561.40625 7.29054.25378 11.07539.2806 10.93064.46875-7.64742l.1875-18.96562.25 15.34583c.13798 8.42025.32785 12.69049.40625 9.48281.2002-8.19215.8173-11.11463.875-4.07863.0686 8.36085.88466 5.40717 1.28125-4.69042l.34375-8.76905.25 5.86303.25 5.81205.125-5.45517c.0695-3.00722.26289-6.28812.4375-7.29055.30648-1.75945.32741-1.7125.625.66278.16954 1.35326.35607 4.63415.40625 7.29055.0159.84165.0654 1.25039.0937 1.32555.0686-.32644.18109-2.42562.28125-6.01597l.25-9.48281.1875 11.67507.1875 11.67507.25-9.83969c.13414-5.01658.22117-7.34135.28125-7.54546.0413.33996.0932 1.72201.15625 3.92568l.1875 6.16892.28125-6.93366c.21979-5.51953.30643-3.58972.4375 9.48281.11356 11.32785.23789 14.84242.4375 11.31819.20011-3.53312.36268-.19375.46875 10.91033l.125 16.05959.34375-23.91095c.17375-13.14756.43971-24.11849.59375-24.3698.15403-.2513.32197 6.24182.375 14.42814l.0937 14.88699.21875-13.51045.25-13.45947.34375 11.21622c.18433 6.17844.36671 14.04246.40625 17.48712.0469 4.08499.25202.96143.59375-9.02396.35337-10.32608.56497-13.52757.65625-9.83969.16153 6.52654.34558 5.28401.84375-5.45517l.375-8.05529.125 5.86303c.0682 3.20773.2327 4.97908.375 3.97666.19209-1.35306.35623-.78445.5625 2.19227.2363 3.40996.29256 2.89014.40625-3.61979.0736-4.21009.20598-6.91813.3125-6.01597.10651.90216.39633 1.63145.625 1.63145.22869 0 .4364 1.09305.46875 2.39619l.0625 2.34521.28125-2.54914c.16496-1.40336.48895 5.86735.6875 16.16156.54006 28.00019 1.02084 27.05594 1.1875-2.29422l.15625-25.89929.25 20.801.25 20.75002.1875-18.96562.1875-18.91464.25 16.3655c.164 11.38131.33625 15.55318.59375 13.56144.4509-3.4878 1.14602-17.47861 1.28125-25.95027l.0937-6.16893.28125 8.00431c.2003 5.94491.31844 7.0001.4375 4.02764.14066-3.51137.18453-3.15907.46875 2.90603.17852 3.80916.34749 10.94387.375 15.85566.0303 5.41327.22913 8.922.5 8.922.27848 0 .50064-5.1446.5625-13.6634l.0937-13.66341.25 17.13024c.10972 7.57049.20359 11.46359.28125 11.92999.0358-.17853.0924-1.11562.125-2.80406.0853-4.4106.29755-13.94055.46875-21.15788l.3125-13.15358.15625 11.67508.1875 11.67507.25-9.83969c.1778-6.64931.3247-8.41041.4375-5.45517l.15625 4.38453.3125-4.38453c.11928-1.75893.19881-2.77671.25-2.957.0532.27615.0943 1.90198.15625 5.14927.19195 10.06396.75686 21.17044.84375 16.56942.0624-3.30204.19771-3.82371.96875-3.82371.80706 0 .90625-.4703.90625-4.99632 0-2.75663.12817-6.14121.3125-7.49448.32018-2.3506.34315-2.30111.59375 1.52949.0465.71085.11812 1.14279.15625 1.27457.0929-.23986.1915-2.5065.25-7.08662.12079-9.45716.71956-10.62181.84375-1.63145.0712 5.15282.86071 4.88956 1.0625-.35688.0888-2.30552.25866 3.83982.34375 13.6634.092 10.62297.25523 16.39215.4375 14.22422.17969-2.13737.33383 2.8874.375 12.1849l.0937 15.85566h.4375.4375c-.29018 0-.40747-8.76715-.375-24.98159.0275-13.73299.1965-28.05514.375-31.86428.0384-.81829.0599-1.19052.0937-1.07064.14733.51947.24425 9.72245.28125 26.05223.0473 20.85581-.0828 31.86428-.375 31.86428h.90625l.0937-19.88331c.0818-17.39136.11623-18.49524.34375-8.922l.25 10.96132.1875-12.03196c.15812-10.76229.21791-11.40723.46875-5.86302l.28125 6.2199.15625-6.2199.15625-6.16893.28125 4.74141.3125 4.7414.125-3.67076c.0747-2.00483.26656-7.42089.4375-12.03195l.3125-8.36119.15625 6.93367c.073 3.80916.26093 9.22522.4375 12.03195l.3125 5.09828.125-7.29054c.0647-4.00964.25669-10.25868.4375-13.86734l.34375-6.57679.0625 5.6591c.0401 3.20361.27786 5.6591.53125 5.6591.28194 0 .4375 5.02614.4375 13.61242 0 7.48464.15942 13.3515.34375 13.0516.18433-.29991.42575-7.31337.5625-15.60075l.25-15.09092.0937 14.07127c.0541 8.7757.25182 14.02028.53125 14.02028.28126 0 .50181-5.8757.5625-15.85567l.0937-15.85566.25 13.45947c.15093 8.01277.33334 11.44403.4375 8.41217l.15625-5.09828.28125 5.09828c.22694 4.00696.333 2.36998.46875-7.64743l.1875-12.74571.25 11.26721.25 11.31819.1875-15.70271c.13802-12.20703.25042-14.25786.46875-9.43183.1542 3.4082.33596 5.02315.40625 3.61978.11984-2.39293.13322-2.42298.46875-.71376.19677 1.00241.40374 8.18982.46875 16.00861.10797 12.98459.14456 13.59246.4375 6.93367.17639-4.00963.39561-10.25868.46875-13.86733l.125-6.52581.28125 5.45517.3125 5.45516.15625-6.16892.15625-6.21991.28125 6.21991.28125 6.16892.15625-9.48281.1875-9.48281.28125 8.05529.25 8.00431.0937-7.85136c.0723-6.41617.20125-7.80037.75-7.80037.51121 0 .70467.98358.75 4.18059.0583 4.10499.0426 4.04582.40625-1.58047.20431-3.15997.48685-5.89256.59375-6.06696.10691-.17442.30948 3.25966.46875 7.59645.40993 11.16221.54838 12.38953.625 5.50614.0383-3.45078.27487-6.01597.53125-6.01597.24578 0 .43375 1.09305.4375 2.39619.005 1.79793.1088 2.10438.4375 1.27457.28733-.72537.46407 4.52966.5 15.65174.0298 9.22215.19419 19.74145.375 23.35014.23133 4.61719.37943-1.36198.5-20.08724l.1875-26.61305.21875 19.3225.25 19.3225.21875-22.94228.1875-22.99326.25 17.5381c.13633 9.62308.33334 15.35197.4375 12.74571.15806-3.95516.2328-3.27419.4375 4.02764.23675 8.44456.25615 8.11502.6875-9.12593l.4375-17.89498.25 9.48281c.14022 5.44854.31997 7.81131.40625 5.50615.14127-3.77497.15881-3.88075.46875-1.4785.30495 2.3636.34174 2.23574.4375-1.4785.082-3.18275.18477-3.63896.46875-2.19227l.34375 1.83539.0937-1.83539.0937-1.7844.34375 1.7844c.28399 1.44672.38669 1.04147.46875-2.14128.0957-3.71422.13255-3.84208.4375-1.4785l.3125 2.54914.0625-2.49816c.0324-1.36994.22192-2.23778.40625-1.93734.18433.30046.45495 8.14686.59375 17.43613l.25 16.87532.1875-25.13454.1875-25.13455.21875 25.13455c.22389 23.35781.27462 24.07584.4375 10.19657.0894-7.6225.14797-11.18463.21875-11.62409.0527.26873.12084 1.90415.21875 4.69042.36121 10.27927 1.32368 13.83167 1.34375 4.94534.0199-8.83674.90856-7.61542 1.03125 1.42752.0558 4.10988.20949-2.03548.34375-13.66341l.25-21.1069.15625 15.29486.15625 15.29485.5625-8.0043.53125-8.00431.15625 17.84399.15625 17.844.25-15.29485c.18592-11.34484.22155-14.23781.3125-10.85935v-59.1401l-.28075 4.7414c-.20916 3.64272-.3359 4.23039-.53125 2.54914-.13978-1.2029-.30204 1.29605-.375 5.50615-.12581 7.26003-.15324 7.41149-.46875 3.2629-.18296-2.40578-.41944-8.49842-.5-13.51045-.0485-3.01774-.0901-4.81485-.125-5.14927-.0526.39454-.12864 3.96329-.25 11.36918l-.25 15.29485-.1875-12.03195-.1875-12.03195-.28125 9.48281-.25 9.48281-.1875-14.93798-.1875-14.93797-.25 12.03195-.28125 12.03195-.15625-13.51045c-.1469-12.07716-.20152-12.83952-.5-7.29055-.18332 3.40818-.3882 13.77113-.46875 22.99326l-.15625 16.72238-.25-22.94228-.21875-22.94228-.125 20.59707c-.0562 11.32719-.25513 20.59707-.46875 20.59707-.44558 0-.91981-3.9858-1.03125-8.76905-.0627-2.6912-.10215-2.86132-.25-.91769-.1448 1.90372-.39014 2.39619-1.21875 2.39619-.89737 0-1.07192-.54425-1.40625-3.8747-.37007-3.68659-.4095-3.49846-.65625 3.8747l-.25 7.64743-.15625-9.83969c-.0798-5.41301-.267-14.78658-.4375-20.801l-.3125-10.91033-.15625 14.93797c-.1264 12.73308-.18476 13.99762-.46875 8.71807-.18332-3.4082-.4063-10.12642-.46875-14.93798l-.0937-8.71806-.34375 6.16892c-.18334 3.40818-.39173 10.803-.46875 16.41648l-.125 10.19657-.28125-12.74571c-.2498-12.47369-.2371-12.3095-.40625 8.36118l-.18755 21.15788-.28125-13.25554c-.14862-7.29532-.385-13.52678-.5625-13.81635-.17751-.2896-.36519 4.73227-.40625 11.11426l-.0937 11.57311-.25-8.87102c-.3027-9.99104-.9375-12.94421-.9375-4.38452 0 6.5014-.83602 7.78132-.9375 1.42752-.0656-4.10731-.14112-3.78572-.65625 3.97666-.50348 7.58674-1.09375 3.75785-1.09375-7.18858 0-6.08128-.0819-10.87875-.21875-10.65542-.13689.22335-.43057 6.09101-.625 13.05161l-.34375 12.64375-.125-11.67507c-.0696-6.41542-.24639-10.47832-.40625-9.07495l-.3125 2.54914-.3125-3.5688c-.17646-1.96053-.34423-4.92866-.375-6.57678l-.0625-3.00799-.34375 3.31388c-.1968 1.80432-.38802 7.1167-.40625 11.82802-.02 5.18864-.19808 8.56512-.46875 8.56512-.24577 0-.48266-1.87506-.53125-4.18059-.0547-2.59621-.20766-1.14296-.375 3.82371l-.25 8.00431-.15625-11.67507c-.0849-6.73674-.26398-10.54862-.4375-9.07495-.22971 1.95094-.42396.54729-.78125-5.86303l-.46875-8.36118-.15625 6.16892-.15625 6.21991-.28125-7.64743-.25-7.64743-.1875 8.00431-.15625 8.00431-.28125-6.57679c-.051-1.20326-.11662-1.91159-.15625-2.14128-.096.33435-.19645 4.24016-.25 12.38883-.17414 26.49749-.82314 25.97143-.96875-.76474-.10354-19.01182-.17797-21.59973-.4375-14.17323-.17515 5.01204-.50543 12.87603-.71875 17.48711-.36614 7.91404-.37954 8.10574-.625 3.97667l-.2813-4.33355-.0625 4.1806c-.10194 5.68897-.83376 5.2998-1.0625-.56081-.27908-7.15064-1.2561-7.94887-1.3125-1.07064-.0828 10.09359-.74167 2.38345-.84375-9.83969-.0592-7.10341-.22975-10.81471-.4375-9.48281-.24158 1.54895-.39427.0649-.5-5.09829-.12018-5.86891-.20176-4.68853-.40625 6.16893l-.25 13.51045-.1875-19.3225c-.18444-18.71721-.18665-19.00309-.4375-8.05529l-.25 11.3182-.0937-11.72606c-.0517-6.45971-.24997-13.28161-.40625-15.14191l-.28125-3.36486h-.3125z"
       fill="url(#a)"
       id="path14" />
  </g>
</svg>
