<?xml version="1.0" encoding="UTF-8" standalone="no"?>
<!-- Created with Inkscape (http://www.inkscape.org/) -->

<svg
   xmlns:dc="http://purl.org/dc/elements/1.1/"
   xmlns:cc="http://creativecommons.org/ns#"
   xmlns:rdf="http://www.w3.org/1999/02/22-rdf-syntax-ns#"
   xmlns:svg="http://www.w3.org/2000/svg"
   xmlns="http://www.w3.org/2000/svg"
   xmlns:sodipodi="http://sodipodi.sourceforge.net/DTD/sodipodi-0.dtd"
   xmlns:inkscape="http://www.inkscape.org/namespaces/inkscape"
   id="svg2393"
   height="48"
   width="48"
   version="1.1"
   sodipodi:docname="symbolic-link.svg"
   inkscape:version="0.92.4 (33fec40, 2019-01-16)">
  <metadata
     id="metadata1019">
    <rdf:RDF>
      <cc:Work
         rdf:about="">
        <dc:format>image/svg+xml</dc:format>
        <dc:type
           rdf:resource="http://purl.org/dc/dcmitype/StillImage" />
      </cc:Work>
    </rdf:RDF>
  </metadata>
  <sodipodi:namedview
     pagecolor="#ffffff"
     bordercolor="#666666"
     borderopacity="1"
     objecttolerance="10"
     gridtolerance="10"
     guidetolerance="10"
     inkscape:pageopacity="0"
     inkscape:pageshadow="2"
     inkscape:window-width="1853"
     inkscape:window-height="1031"
     id="namedview1017"
     showgrid="false"
     inkscape:zoom="11.61"
     inkscape:cx="-1.0169492"
     inkscape:cy="23.630527"
     inkscape:window-x="67"
     inkscape:window-y="27"
     inkscape:window-maximized="1"
     inkscape:current-layer="svg2393" />
  <defs
     id="defs2395">
    <linearGradient
       id="linearGradient2200"
       y2="23.406"
       gradientUnits="userSpaceOnUse"
       x2="20.743"
       gradientTransform="matrix(0 1.9109 1.8469 0 -40.874 -14.697)"
       y1="41.709"
       x1="20.743">
      <stop
         id="stop3076"
         style="stop-color:#fff"
         offset="0" />
      <stop
         id="stop2205"
         style="stop-color:#eaeaea;stop-opacity:.78431"
         offset=".78233" />
      <stop
         id="stop3078"
         style="stop-color:#eaeaea;stop-opacity:0"
         offset="1" />
    </linearGradient>
    <linearGradient
       id="linearGradient2198"
       y2="10.13"
       gradientUnits="userSpaceOnUse"
       x2="19.054"
       gradientTransform="matrix(0 1.1083 -1.0712 0 46.132 5.1042)"
       y1="40.882"
       x1="19.054">
      <stop
         id="stop2792"
         style="stop-color:#797979;stop-opacity:0"
         offset="0" />
      <stop
         id="stop2394"
         style="stop-color:#545454;stop-opacity:.78431"
         offset=".22323" />
      <stop
         id="stop2794"
         offset="1" />
    </linearGradient>
  </defs>
  <g
     transform="matrix(0.03335535,0,0,0.03415446,7.2377365,7.2822305)"
     id="g1642"
     style="stroke-width:29.62739754">
    <path
       inkscape:connector-curvature="0"
       d="M 637.2,36.9 443.8,230.8 c -36.2,36.2 -36.2,94.9 0,132.1 l 35.8,35.4 203.3,-203.6 122.5,122.5 -203.7,203.2 35.6,35.4 c 36.6,36.6 96.2,36.6 133.2,0 L 962.9,362.9 c 36.3,-37.3 36.3,-95.9 0,-132.1 L 770.4,36.9 C 733.5,1 673.9,1 637.2,36.9 Z"
       id="path1636"
       style="stroke-width:29.62739754" />
    <path
       inkscape:connector-curvature="0"
       d="m 418.9,667.5 c -23.8,23.4 -62.9,23.4 -86.8,0 v 0 c -23.5,-23.7 -23.5,-62.8 0,-86.8 L 591.7,321.5 c 24.2,-24 63.2,-24 87.2,0 v 0 c 24,23.9 24,62.8 0,86.4 z"
       id="path1638"
       style="stroke-width:29.62739754" />
    <path
       inkscape:connector-curvature="0"
       d="M 362.8,962.3 556.1,769.2 c 36.2,-36.8 36.2,-95.7 0,-132.3 L 520.3,601.5 317.1,805.1 195.1,682.9 398.4,479.8 362.8,444.1 c -36.3,-36.3 -95.8,-36.3 -132.1,0 L 37.3,636.9 c -36.4,36.3 -36.4,95.5 0,132.3 l 193.4,193.1 c 36.3,37 95.8,37 132.1,0 z"
       id="path1640"
       style="stroke-width:29.62739754" />
  </g>
</svg>
